<svg width="415" height="487" viewBox="0 0 415 487" fill="none" xmlns="http://www.w3.org/2000/svg">
<path d="M284.019 451.35H257.684C257.5 451.351 257.319 451.39 257.153 451.466C256.986 451.542 256.837 451.652 256.716 451.79C256.595 451.927 256.504 452.089 256.45 452.264C256.396 452.438 256.379 452.623 256.401 452.805C257.054 457.751 261.121 473.518 286.363 470.553C288.346 470.299 290.284 469.769 292.121 468.98C298.932 466.118 318.157 458.577 331.954 458.38C331.954 458.38 346.364 460.676 351.084 449.187L303.062 452.923L284.019 451.35Z" fill="#00B5AD"/>
<path d="M284.019 451.35L292.907 450.438L306.397 453.992C306.397 453.992 289.611 458.364 284.019 451.35Z" fill="#F9B499"/>
<path d="M357.699 242.177L310.259 185.7L294.882 184.914L247.45 248.468L237.397 281.684C231.152 306.242 247.812 338.302 247.812 338.302L280.007 411.434C280.463 412.464 281.208 413.339 282.152 413.953C283.096 414.568 284.198 414.894 285.324 414.894H286.945L279.865 439.877C281.721 441.867 283.702 443.737 285.796 445.476C318.212 472.212 357.691 445.476 357.691 445.476L351.115 360.407C348.999 327.592 357.699 242.177 357.699 242.177ZM303.188 331.036C303.188 331.241 303.149 331.422 303.133 331.571C303.117 331.72 303.133 331.799 303.133 331.941C303.14 332.006 303.14 332.072 303.133 332.137L277.175 298.143C276.714 297.537 276.421 296.82 276.326 296.065C276.231 295.31 276.336 294.543 276.633 293.841L292.459 256.253C295.401 250.749 297.902 248.783 299.743 248.303C300.323 248.138 300.936 248.128 301.522 248.274C302.107 248.42 302.644 248.718 303.078 249.136C310.747 258.353 304.195 321.789 303.188 330.989V331.036Z" fill="#2F2E41"/>
<path d="M239.498 66.6765L270.096 88.5295C270.208 88.6111 270.336 88.6696 270.471 88.7015C270.606 88.7335 270.746 88.7382 270.883 88.7155C271.019 88.6929 271.15 88.6432 271.268 88.5694C271.385 88.4956 271.487 88.3992 271.567 88.2857C271.716 88.0677 271.779 87.8018 271.742 87.54C271.706 87.2782 271.573 87.0394 271.37 86.8703L242.565 63.3344L239.498 66.6765Z" fill="#E6E7E8"/>
<path opacity="0.2" d="M303.062 332.09C302.275 339.584 297.414 381.749 286.945 414.855H285.324C284.198 414.855 283.096 414.528 282.152 413.914C281.208 413.3 280.463 412.424 280.007 411.395C280.007 411.395 303.227 369.489 290.72 329.935L276.963 307.445L264.047 317.857L269.467 301.209H257.841C257.841 301.209 270.709 292.874 273.628 283.304C273.628 283.304 292.962 247.729 293.387 225.774C293.387 225.774 294.795 234.77 299.68 237.097V247.139V248.295C297.839 248.775 295.338 250.701 292.396 256.245L276.625 293.841C276.328 294.543 276.223 295.31 276.318 296.065C276.413 296.82 276.706 297.537 277.167 298.143L303.062 332.09Z" fill="black"/>
<path d="M301.355 82.8913H306.35L323.49 97.1402L315.852 155.017L310.259 185.685L294.881 184.898L296.455 127.195C296.455 127.195 293.694 97.4862 301.355 82.8913Z" fill="#00B5AD"/>
<path d="M238.097 68.1862L243.91 61.8953L232.882 52.5376L227.565 59.3947L238.097 68.1862Z" fill="#2F2E41"/>
<path d="M229.752 200.406H157.283V203.834H229.752V200.406Z" fill="#BCBEC0"/>
<path d="M82.3836 444.045L79.3159 469.617L173.526 470.403C173.526 470.403 147.065 450.446 131.797 446.073L82.3836 444.045Z" fill="#00B5AD"/>
<path opacity="0.2" d="M82.3836 444.045L79.3159 469.617L173.526 470.403C173.526 470.403 147.065 450.446 131.797 446.073L82.3836 444.045Z" fill="black"/>
<path d="M79.6384 477.064L79.3159 469.617L173.526 470.388L173.738 475.428L79.6384 477.064Z" fill="#2F2E41"/>
<path d="M11.5668 445.429L7.37427 470.852L101.459 475.672C101.459 475.672 75.8786 454.598 60.8153 449.565L11.5668 445.429Z" fill="#00B5AD"/>
<path d="M13.4861 428.278L20.7463 259.8L63.2931 190.891C63.2931 190.891 87.0246 193.462 97.5334 189.562L115.137 189.491L129.988 434.522H83.304L81.841 275.834L60.6501 432.87L13.4861 428.278Z" fill="#2F2E41"/>
<path d="M189.989 67.5572L170.757 118.671C170.022 120.505 169.116 122.267 168.051 123.932C164.787 129.012 158.612 135.57 149.267 132.77C148.866 132.652 148.481 132.511 148.025 132.354L119.471 123.035C119.471 123.035 118.897 165.216 125.095 208.426C125.158 208.89 125.229 209.37 125.3 209.85C131.711 253.54 131.428 263.157 131.428 263.157C131.428 263.157 99.8537 268.662 97.604 227.331V189.585L95.4409 147.908V80.0211L99.3188 69.5389C99.3188 69.5389 105.541 69.6018 115.208 73.6358C119.439 75.4136 123.51 77.5498 127.377 80.0211L144.288 88.6711L166.14 59.8273C169.043 63.1537 172.794 65.6298 176.995 66.9912C181.195 68.3526 185.686 68.5483 189.989 67.5572Z" fill="#00B5AD"/>
<path opacity="0.7" d="M189.989 67.5572L170.757 118.671C170.022 120.505 169.116 122.267 168.051 123.932C164.787 129.012 158.612 135.57 149.267 132.77C148.866 132.652 148.481 132.511 148.025 132.354L119.471 123.035C119.471 123.035 118.897 165.216 125.095 208.426C125.158 208.89 125.229 209.37 125.3 209.85C131.711 253.54 131.428 263.157 131.428 263.157C131.428 263.157 99.8537 268.662 97.604 227.331V189.585L95.4409 147.908V80.0211L99.3188 69.5389C99.3188 69.5389 105.541 69.6018 115.208 73.6358C119.439 75.4136 123.51 77.5498 127.377 80.0211L144.288 88.6711L166.14 59.8273C169.043 63.1537 172.794 65.6298 176.995 66.9912C181.195 68.3526 185.686 68.5483 189.989 67.5572Z" fill="white"/>
<path d="M122.453 186.298L105.753 187.965C105.753 187.965 103.338 226.348 127.723 226.725L122.453 186.298Z" fill="#00B5AD"/>
<path opacity="0.4" d="M122.453 186.298L105.753 187.965C105.753 187.965 103.338 226.348 127.723 226.725L122.453 186.298Z" fill="white"/>
<path opacity="0.2" d="M20.7463 259.8L20.0698 273.215C20.0698 273.215 54.2866 277.854 65.5663 226.725C65.5663 226.725 70.8994 201.797 71.1669 191.756L59.6747 181.721L20.1013 249.884L20.7463 259.8Z" fill="black"/>
<path d="M56.1428 66.4956C56.1428 66.4956 52.6503 66.4956 51.5098 67.5493C51.5098 67.5493 61.4051 85.1324 61.5939 104.508L63.3086 190.859C63.3086 190.859 83.8544 193.517 97.549 189.522L93.3801 109.282C93.3801 109.282 89.0066 74.2885 87.4885 69.531H83.1858L69.68 70.0736L56.1428 66.4956Z" fill="#00B5AD"/>
<path opacity="0.5" d="M56.1428 66.4956C56.1428 66.4956 52.6503 66.4956 51.5098 67.5493C51.5098 67.5493 61.4051 85.1324 61.5939 104.508L63.3086 190.859C63.3086 190.859 83.8544 193.517 97.549 189.522L93.3801 109.282C93.3801 109.282 89.0066 74.2885 87.4885 69.531H83.1858L69.68 70.0736L56.1428 66.4956Z" fill="white"/>
<path d="M83.1859 69.5703C80.6924 78.7943 76.1616 80.0446 73.7861 80.021C72.9685 80.0104 72.1722 79.7587 71.4971 79.2976L68.925 77.5754L56.3867 69.1771C56.2985 69.1207 56.2304 69.0378 56.1923 68.9403C56.1541 68.8428 56.1478 68.7358 56.1743 68.6345L59.8949 51.476L67.1315 48.0554L78.9304 60.8023C78.912 62.3856 79.2712 63.9505 79.9785 65.3672C80.6857 66.784 81.7205 68.0119 82.9971 68.949C83.0885 69.0207 83.1557 69.1188 83.1894 69.2299C83.2232 69.341 83.222 69.4599 83.1859 69.5703Z" fill="#F9B499"/>
<path d="M68.9171 77.5676L56.3867 69.1771C56.2985 69.1207 56.2304 69.0378 56.1923 68.9403C56.1541 68.8429 56.1478 68.7358 56.1743 68.6345L59.8949 51.4761V68.2178L68.9171 77.5676Z" fill="#F7A48B"/>
<path d="M67.4777 54.5271C67.4777 54.5271 67.281 68.9569 81.3768 67.4392C80.7649 66.987 80.2583 66.4078 79.8917 65.7413C79.5251 65.0748 79.3072 64.3368 79.253 63.5781C79.253 63.5781 72.213 62.5401 67.4777 54.5271Z" fill="#F7A48B"/>
<path d="M51.5256 67.5493C51.5256 67.5493 41.2527 69.9084 38.5862 71.4418C38.5862 71.4418 56.3396 102.055 62.0188 125.072L61.6491 104.563C61.3272 91.5872 57.8528 78.884 51.5256 67.5493Z" fill="#00B5AD"/>
<path opacity="0.4" d="M51.5256 67.5493C51.5256 67.5493 41.2527 69.9084 38.5862 71.4418C38.5862 71.4418 56.3396 102.055 62.0188 125.072L61.6491 104.563C61.3272 91.5872 57.8528 78.884 51.5256 67.5493Z" fill="white"/>
<path opacity="0.7" d="M152.406 91.1953L162.01 100.632L148.906 96.3617L138.68 108.771V93.0433L115.137 73.6358C119.368 75.4136 123.439 77.5498 127.306 80.0211L144.218 88.6711L166.069 59.8273L152.406 91.1953Z" fill="white"/>
<path d="M87.4885 69.5388H99.2874C99.2874 69.5388 104.455 120.141 95.4016 147.908L93.3801 109.282C93.3801 109.282 89.9663 82.2858 87.4885 69.5388Z" fill="#00B5AD"/>
<path opacity="0.4" d="M87.4885 69.5388H99.2874C99.2874 69.5388 104.455 120.141 95.4016 147.908L93.3801 109.282C93.3801 109.282 89.9663 82.2858 87.4885 69.5388Z" fill="white"/>
<path opacity="0.7" d="M168.051 123.916C164.787 128.996 158.612 135.554 149.268 132.755C150.093 127.793 157.708 123.892 166.966 123.892C167.328 123.892 167.69 123.9 168.051 123.916Z" fill="white"/>
<path d="M38.5862 71.4418C38.5862 71.4418 12.9591 76.9936 9.42726 91.3447C9.42726 91.3447 -2.15924 132.652 0.357852 165.892C0.357852 165.892 2.71763 192.589 19.299 183.019L14.9727 267.16C14.9727 267.16 48.458 276.274 60.8468 224.327C61.9984 219.404 62.6442 214.377 62.7739 209.323L63.3246 190.914L62.0188 125.095C62.0188 125.095 57.1655 103.919 38.5862 71.4418Z" fill="#00B5AD"/>
<path opacity="0.7" d="M38.5862 71.4418C38.5862 71.4418 12.9591 76.9936 9.42726 91.3447C9.42726 91.3447 -2.15924 132.652 0.357852 165.892C0.357852 165.892 2.71763 192.589 19.299 183.019L14.9727 267.16C14.9727 267.16 48.458 276.274 60.8468 224.327C61.9984 219.404 62.6442 214.377 62.7739 209.323L63.3246 190.914L62.0188 125.095C62.0188 125.095 57.1655 103.919 38.5862 71.4418Z" fill="white"/>
<path d="M200.365 77.3789C200.365 82.0401 198.512 86.5105 195.215 89.8065C191.918 93.1025 187.447 94.9541 182.784 94.9541C178.122 94.9541 173.65 93.1025 170.353 89.8065C167.056 86.5105 165.204 82.0401 165.204 77.3789C165.204 76.4489 165.28 75.5205 165.432 74.603C165.834 72.0902 166.779 69.695 168.199 67.5835C169.62 65.472 171.483 63.6948 173.66 62.3751L166.305 38.8785L166.085 38.9493C165.897 39.0077 165.7 39.0287 165.505 39.0109C165.309 38.9931 165.119 38.937 164.945 38.8457C164.771 38.7544 164.617 38.6298 164.491 38.4789C164.366 38.328 164.271 38.1538 164.213 37.9663L163.851 36.8261C163.735 36.4465 163.773 36.0365 163.957 35.6848C164.141 35.333 164.456 35.0679 164.834 34.9467L174.659 31.872C175.036 31.7537 175.445 31.7899 175.796 31.9726C176.147 32.1554 176.411 32.4699 176.531 32.8471L176.893 34.0031C177.009 34.3816 176.97 34.7906 176.786 35.1411C176.602 35.4915 176.287 35.7552 175.909 35.8746L175.642 35.9611L183.115 59.8273C186.829 59.8886 190.427 61.1307 193.388 63.3738C195.557 65.0076 197.317 67.1234 198.528 69.5541C199.738 71.9847 200.367 74.6635 200.365 77.3789Z" fill="#E6E7E8"/>
<path d="M200.365 77.3789C200.365 82.0401 198.512 86.5104 195.215 89.8064C191.918 93.1024 187.447 94.9541 182.784 94.9541C178.122 94.9541 173.65 93.1024 170.353 89.8064C167.056 86.5104 165.204 82.0401 165.204 77.3789C165.204 76.4489 165.28 75.5205 165.432 74.603C165.432 74.603 172.59 77.4339 184.027 68.1863C184.027 68.1863 188.983 62.8075 193.387 63.3737C195.557 65.0076 197.317 67.1234 198.527 69.554C199.738 71.9847 200.367 74.6635 200.365 77.3789Z" fill="#2F2E41"/>
<path d="M165.432 74.603C165.432 74.603 165.589 67.9189 172.472 68.3907C172.472 68.3907 180.527 69.0356 184.027 68.1863C184.027 68.1863 174.132 77.0407 165.432 74.603Z" fill="#2F2E41"/>
<path opacity="0.2" d="M165.432 74.603C165.432 74.603 165.589 67.9189 172.472 68.3907C172.472 68.3907 180.527 69.0356 184.027 68.1863C184.027 68.1863 174.132 77.0407 165.432 74.603Z" fill="black"/>
<path d="M42.9282 154.663C43.5965 156.891 44.7008 158.965 46.177 160.763C47.6531 162.562 49.4717 164.049 51.5274 165.14C53.583 166.23 55.8348 166.902 58.1521 167.116C60.4693 167.33 62.806 167.081 65.0266 166.385C67.2472 165.69 69.3074 164.56 71.0879 163.062C72.8684 161.564 74.3337 159.727 75.3988 157.659C76.4639 155.59 77.1075 153.331 77.2925 151.012C77.4775 148.693 77.2001 146.36 76.4763 144.149C76.2007 143.259 75.8507 142.393 75.4301 141.562C74.2947 139.285 72.6774 137.281 70.6902 135.691C68.7031 134.101 66.3937 132.962 63.9223 132.354V107.709H64.1504C64.5469 107.705 64.9258 107.545 65.2054 107.264C65.485 106.983 65.6429 106.603 65.645 106.207V105.012C65.645 104.615 65.4875 104.235 65.2072 103.955C64.9269 103.675 64.5468 103.518 64.1504 103.518H53.8461C53.4503 103.52 53.0714 103.678 52.7916 103.957C52.5117 104.237 52.3536 104.616 52.3515 105.012V106.223C52.3536 106.618 52.5117 106.997 52.7916 107.277C53.0714 107.557 53.4503 107.715 53.8461 107.717H54.1292V132.715C50.6055 133.891 47.5458 136.155 45.3902 139.179C43.8052 141.392 42.7575 143.943 42.3301 146.63C41.9028 149.318 42.1075 152.068 42.9282 154.663Z" fill="#E6E7E8"/>
<path d="M42.9282 154.663C43.5965 156.891 44.7008 158.965 46.1769 160.763C47.6531 162.562 49.4717 164.049 51.5274 165.14C53.583 166.23 55.8348 166.902 58.152 167.116C60.4693 167.33 62.806 167.081 65.0266 166.386C67.2471 165.69 69.3074 164.56 71.0879 163.062C72.8684 161.564 74.3337 159.727 75.3988 157.659C76.4638 155.59 77.1075 153.331 77.2925 151.012C77.4775 148.693 77.2001 146.36 76.4763 144.149C76.2007 143.259 75.8507 142.393 75.4301 141.562C75.4301 141.562 69.452 146.406 55.7653 141.004C55.7653 141.004 49.4254 137.355 45.3981 139.211C43.8166 141.419 42.7703 143.964 42.3416 146.646C41.913 149.327 42.1138 152.072 42.9282 154.663Z" fill="#00B5AD"/>
<path opacity="0.2" d="M42.9282 154.663C43.5965 156.891 44.7008 158.965 46.1769 160.763C47.6531 162.562 49.4717 164.049 51.5274 165.14C53.583 166.23 55.8348 166.902 58.152 167.116C60.4693 167.33 62.806 167.081 65.0266 166.386C67.2471 165.69 69.3074 164.56 71.0879 163.062C72.8684 161.564 74.3337 159.727 75.3988 157.659C76.4638 155.59 77.1075 153.331 77.2925 151.012C77.4775 148.693 77.2001 146.36 76.4763 144.149C76.2007 143.259 75.8507 142.393 75.4301 141.562C75.4301 141.562 69.452 146.406 55.7653 141.004C55.7653 141.004 49.4254 137.355 45.3981 139.211C43.8166 141.419 42.7703 143.964 42.3416 146.646C41.913 149.327 42.1138 152.072 42.9282 154.663Z" fill="white"/>
<path d="M75.4302 141.562C75.4302 141.562 73.2906 135.271 66.8563 137.74C66.8563 137.74 59.3601 140.768 55.7654 141.004C55.7654 141.004 67.8317 146.477 75.4302 141.562Z" fill="#00B5AD"/>
<path d="M88.0865 215.559C89.642 220.184 92.9478 224.016 97.2954 226.233C101.643 228.451 106.687 228.878 111.345 227.423C116.004 225.968 119.907 222.746 122.219 218.449C124.53 214.151 125.066 209.119 123.711 204.432C123.418 203.488 123.047 202.57 122.602 201.687C121.407 199.262 119.697 197.126 117.593 195.427C115.489 193.729 113.041 192.508 110.418 191.85V165.743H110.662C111.079 165.743 111.479 165.577 111.774 165.282C112.069 164.987 112.235 164.587 112.235 164.17V162.896C112.235 162.479 112.069 162.079 111.774 161.784C111.479 161.489 111.079 161.323 110.662 161.323H99.7281C99.3108 161.323 98.9107 161.489 98.6156 161.784C98.3206 162.079 98.1549 162.479 98.1549 162.896V164.178C98.1549 164.595 98.3206 164.995 98.6156 165.29C98.9107 165.585 99.3108 165.75 99.7281 165.75H100.035V192.298C96.2927 193.544 93.0427 195.945 90.753 199.155C89.0666 201.495 87.9478 204.196 87.485 207.043C87.0222 209.89 87.2281 212.805 88.0865 215.559Z" fill="#E6E7E8"/>
<path d="M88.0864 215.559C89.6419 220.184 92.9477 224.016 97.2953 226.233C101.643 228.451 106.687 228.878 111.345 227.423C116.004 225.968 119.907 222.746 122.219 218.449C124.53 214.151 125.066 209.119 123.711 204.432C123.418 203.488 123.047 202.57 122.602 201.687C122.602 201.687 116.246 206.83 101.718 201.097C101.718 201.097 94.9927 197.221 90.7057 199.187C89.0322 201.527 87.9246 204.224 87.4701 207.065C87.0155 209.906 87.2265 212.813 88.0864 215.559Z" fill="#00B5AD"/>
<path opacity="0.2" d="M88.0864 215.559C89.6419 220.184 92.9477 224.016 97.2953 226.233C101.643 228.451 106.687 228.878 111.345 227.423C116.004 225.968 119.907 222.746 122.219 218.449C124.53 214.151 125.066 209.119 123.711 204.432C123.418 203.488 123.047 202.57 122.602 201.687C122.602 201.687 116.246 206.83 101.718 201.097C101.718 201.097 94.9927 197.221 90.7057 199.187C89.0322 201.527 87.9246 204.224 87.4701 207.065C87.0155 209.906 87.2265 212.813 88.0864 215.559Z" fill="white"/>
<path d="M122.602 201.656C122.602 201.656 120.321 194.94 113.493 197.598C113.493 197.598 105.541 200.807 101.694 201.066C101.718 201.066 114.532 206.869 122.602 201.656Z" fill="#00B5AD"/>
<path d="M167.241 61.0383C167.36 59.0573 167.139 57.0707 166.588 55.1641C166.368 54.472 166.081 53.8031 165.731 53.1668C164.944 51.6412 163.277 47.1275 166.305 38.8785L173.66 62.3751C172.783 62.9217 171.95 63.5342 171.166 64.2073C169.776 63.2563 168.464 62.1966 167.241 61.0383Z" fill="#F9B499"/>
<path d="M166.305 34.4906C166.53 32.533 166.58 30.5593 166.455 28.5929C166.441 28.5027 166.451 28.4104 166.484 28.3253C166.517 28.2401 166.571 28.1649 166.642 28.1071C166.712 28.0492 166.797 28.0106 166.886 27.9952C166.976 27.9797 167.069 27.9879 167.155 28.0188C168.287 28.4592 170.246 29.6781 171.127 32.9729L166.305 34.4906Z" fill="#F9B499"/>
<path opacity="0.7" d="M26.5278 99.3263C26.5278 99.3263 29.1786 117.082 28.6988 126.338C28.6413 127.506 28.2951 128.642 27.6911 129.644C27.0872 130.645 26.2442 131.482 25.2378 132.078C18.945 135.806 4.04699 145.391 0.00390625 154.616L0.114029 161.496C0.114029 161.496 6.61914 153.216 11.6376 149.834C11.6376 149.834 8.49123 155.661 9.77338 161.496C9.77338 161.496 20.5104 141.444 35.9118 129.129C35.9118 129.129 38.2087 124.364 33.4655 125.072C33.4655 125.072 31.4991 102.849 26.5278 99.3263Z" fill="white"/>
<path opacity="0.7" d="M19.299 183.019L18.1584 205.147C18.1584 205.147 38.366 192.919 45.5476 159.821C44.4735 158.445 43.6507 156.891 43.117 155.229C43.117 155.229 26.9525 179.331 19.299 183.019Z" fill="white"/>
<path d="M18.8741 189.491L38.5861 191.74L34.1182 219.373C34.1182 219.373 32.4113 229.666 16.9233 229.029L18.8741 189.491Z" fill="#00B5AD"/>
<path opacity="0.4" d="M18.8741 189.491L38.5861 191.74L34.1182 219.373C34.1182 219.373 32.4113 229.666 16.9233 229.029L18.8741 189.491Z" fill="white"/>
<path d="M123.578 176.76H66.9744V181.721H123.578V176.76Z" fill="#BCBEC0"/>
<path d="M81.8408 263.393V161.213H76.8774V263.393H81.8408Z" fill="#BCBEC0"/>
<path d="M79.7249 185.079C82.5834 185.079 84.9006 182.763 84.9006 179.905C84.9006 177.047 82.5834 174.731 79.7249 174.731C76.8664 174.731 74.5491 177.047 74.5491 179.905C74.5491 182.763 76.8664 185.079 79.7249 185.079Z" fill="#D1D3D4"/>
<path d="M79.7249 181.721C80.7414 181.721 81.5655 180.898 81.5655 179.881C81.5655 178.865 80.7414 178.041 79.7249 178.041C78.7084 178.041 77.8843 178.865 77.8843 179.881C77.8843 180.898 78.7084 181.721 79.7249 181.721Z" fill="#E6E7E8"/>
<path d="M136.808 257.417H71.1982V265.501H136.808V257.417Z" fill="#BCBEC0"/>
<path d="M136.808 259.8H71.1982V261.451H136.808V259.8Z" fill="#D1D3D4"/>
<path d="M118.803 257.417H91.0518V253.65L94.3161 249.883H115.531L118.803 253.65V257.417Z" fill="#BCBEC0"/>
<path d="M115.531 245.047H94.041V249.883H115.531V245.047Z" fill="#D1D3D4"/>
<path d="M104.911 245.047C104.354 245.003 103.813 244.837 103.326 244.562C102.84 244.287 102.419 243.909 102.093 243.454C101.767 243 101.545 242.48 101.44 241.931C101.336 241.381 101.353 240.816 101.49 240.274C101.656 239.334 102.012 238.438 102.536 237.64C103.323 236.334 104.77 233.802 104.896 231.742C105.641 233.648 106.544 235.49 107.594 237.247C108.143 237.972 108.551 238.793 108.797 239.669C109.387 241.823 109.466 245.047 104.911 245.047Z" fill="#E6E7E8"/>
<path opacity="0.2" d="M129.257 421.869L97.5726 419.439L81.5576 286.269L83.3039 434.537H130.02L129.257 421.869Z" fill="black"/>
<path opacity="0.2" d="M14.0603 415.043L13.4861 428.278L60.6501 432.87L63.3246 413.07L14.0603 415.043Z" fill="black"/>
<path d="M132.01 434.537H81.5576V452.128H132.01V434.537Z" fill="#2F2E41"/>
<path d="M62.5265 432.826L12.3127 427.93L10.6048 445.438L60.8186 450.334L62.5265 432.826Z" fill="#2F2E41"/>
<path d="M7.39771 478.306V470.852L101.482 475.672V480.721L7.39771 478.306Z" fill="#2F2E41"/>
<path d="M157.283 191.755H153.24V259.8H157.283V191.755Z" fill="#D1D3D4"/>
<path d="M231.773 191.755H227.73V259.8H231.773V191.755Z" fill="#D1D3D4"/>
<path d="M179.245 194.877C179.245 194.318 179.022 193.782 178.627 193.387C178.232 192.992 177.696 192.77 177.137 192.77H166.407C165.87 192.782 165.358 193.001 164.976 193.379C164.595 193.758 164.373 194.269 164.357 194.806C164.341 195.343 164.532 195.866 164.89 196.267C165.248 196.668 165.746 196.916 166.282 196.961V245.857C166.282 247.317 166.862 248.717 167.894 249.75C168.927 250.782 170.327 251.362 171.788 251.362C173.248 251.362 174.649 250.782 175.681 249.75C176.714 248.717 177.294 247.317 177.294 245.857V196.961C177.822 196.925 178.318 196.69 178.68 196.304C179.042 195.917 179.244 195.407 179.245 194.877Z" fill="#E6E7E8"/>
<path d="M177.278 215.936V245.857C177.278 247.317 176.698 248.717 175.665 249.75C174.633 250.782 173.232 251.362 171.772 251.362C170.312 251.362 168.911 250.782 167.879 249.75C166.846 248.717 166.266 247.317 166.266 245.857V213.616C168.226 213.739 170.121 214.361 171.772 215.425C173.487 216.249 175.441 216.43 177.278 215.936Z" fill="#00B5AD"/>
<path d="M199.979 194.877C199.979 194.318 199.757 193.782 199.362 193.387C198.966 192.992 198.43 192.77 197.871 192.77H187.142C186.605 192.782 186.092 193.001 185.711 193.379C185.329 193.758 185.108 194.269 185.092 194.806C185.076 195.343 185.266 195.866 185.624 196.267C185.982 196.668 186.48 196.916 187.016 196.961V245.857C186.952 246.617 187.046 247.381 187.292 248.102C187.539 248.823 187.932 249.485 188.448 250.046C188.964 250.608 189.591 251.056 190.288 251.362C190.986 251.668 191.74 251.827 192.503 251.827C193.265 251.827 194.019 251.668 194.717 251.362C195.415 251.056 196.041 250.608 196.557 250.046C197.073 249.485 197.466 248.823 197.713 248.102C197.959 247.381 198.053 246.617 197.989 245.857V196.961C198.525 196.935 199.03 196.704 199.4 196.316C199.771 195.929 199.978 195.413 199.979 194.877Z" fill="#E6E7E8"/>
<path d="M197.989 215.936V245.857C198.054 246.617 197.96 247.381 197.713 248.102C197.467 248.823 197.073 249.485 196.557 250.046C196.041 250.608 195.415 251.056 194.717 251.362C194.019 251.668 193.265 251.827 192.503 251.827C191.74 251.827 190.986 251.668 190.289 251.362C189.591 251.056 188.964 250.608 188.448 250.046C187.932 249.485 187.539 248.823 187.292 248.102C187.046 247.381 186.952 246.617 187.016 245.857V213.616C188.976 213.739 190.872 214.361 192.522 215.425C194.226 216.238 196.164 216.419 197.989 215.936Z" fill="#00B5AD"/>
<path opacity="0.4" d="M197.989 215.936V245.857C198.054 246.617 197.96 247.381 197.713 248.102C197.467 248.823 197.073 249.485 196.557 250.046C196.041 250.608 195.415 251.056 194.717 251.362C194.019 251.668 193.265 251.827 192.503 251.827C191.74 251.827 190.986 251.668 190.289 251.362C189.591 251.056 188.964 250.608 188.448 250.046C187.932 249.485 187.539 248.823 187.292 248.102C187.046 247.381 186.952 246.617 187.016 245.857V213.616C188.976 213.739 190.872 214.361 192.522 215.425C194.226 216.238 196.164 216.419 197.989 215.936Z" fill="white"/>
<path d="M220.973 194.877C220.973 194.32 220.752 193.785 220.358 193.39C219.965 192.995 219.431 192.772 218.873 192.77H208.136C207.599 192.784 207.088 193.003 206.707 193.383C206.327 193.762 206.107 194.273 206.092 194.81C206.077 195.347 206.268 195.869 206.626 196.269C206.984 196.669 207.483 196.917 208.018 196.961V245.857C207.947 246.62 208.036 247.389 208.28 248.115C208.523 248.841 208.915 249.508 209.431 250.074C209.947 250.64 210.575 251.092 211.276 251.402C211.977 251.711 212.734 251.871 213.5 251.871C214.267 251.871 215.024 251.711 215.725 251.402C216.426 251.092 217.054 250.64 217.57 250.074C218.086 249.508 218.478 248.841 218.721 248.115C218.965 247.389 219.054 246.62 218.983 245.857V196.961C219.519 196.935 220.024 196.704 220.394 196.316C220.765 195.929 220.972 195.413 220.973 194.877Z" fill="#E6E7E8"/>
<path d="M218.967 215.936V245.857C219.038 246.62 218.949 247.389 218.706 248.115C218.463 248.841 218.07 249.508 217.554 250.074C217.038 250.64 216.41 251.092 215.709 251.402C215.008 251.711 214.251 251.871 213.485 251.871C212.719 251.871 211.961 251.711 211.261 251.402C210.56 251.092 209.931 250.64 209.415 250.074C208.899 249.508 208.507 248.841 208.264 248.115C208.021 247.389 207.932 246.62 208.002 245.857V213.616C209.962 213.74 211.858 214.362 213.509 215.425C215.209 216.239 217.145 216.42 218.967 215.936Z" fill="#00B5AD"/>
<path d="M305.147 71.7564L307.278 81.759C307.278 81.759 294.693 95.6225 306.216 99.8846C306.216 99.8846 318.802 102.016 323.521 97.1166L328.43 79.8166C328.43 79.8166 320.752 67.6594 321.5 57.2087L313.713 54.4407L305.147 71.7564Z" fill="#F9B499"/>
<path d="M328.398 79.8637C328.398 79.8637 364.755 77.945 366.414 105.24C366.414 105.24 366.792 123.578 357.195 150.235L350.368 168.322C350.368 168.322 364.023 201.593 362.953 240.4C362.953 240.4 326.054 255.742 313.469 223.1C313.469 223.1 310.055 212.154 310.267 194.791L311.974 153.774L315.443 127.368C316.406 120.144 318.079 113.032 320.438 106.136L323.498 97.148L328.398 79.8637Z" fill="#00B5AD"/>
<path opacity="0.7" d="M328.398 79.8637C328.398 79.8637 364.755 77.945 366.414 105.24C366.414 105.24 366.792 123.578 357.195 150.235L350.368 168.322C350.368 168.322 364.023 201.593 362.953 240.4C362.953 240.4 326.054 255.742 313.469 223.1C313.469 223.1 310.055 212.154 310.267 194.791L311.974 153.774L315.443 127.368C316.406 120.144 318.079 113.032 320.438 106.136L323.498 97.148L328.398 79.8637Z" fill="white"/>
<path d="M315.852 124.655L343.328 81.3657C343.328 81.3657 331.387 79.2268 328.382 79.8638L317.48 116.359L315.852 124.655Z" fill="#00B5AD"/>
<path opacity="0.4" d="M315.852 124.655L343.328 81.3657C343.328 81.3657 331.387 79.2268 328.382 79.8638L317.48 116.359L315.852 124.655Z" fill="white"/>
<path opacity="0.7" d="M315.16 129.641L315.443 127.455L329.602 128.548C329.602 128.548 333.196 116.752 339.127 113.449C336.135 121.748 334.18 130.385 333.306 139.163L315.16 129.641Z" fill="white"/>
<path d="M296.423 127.171L294.85 184.875L293.78 203.826C287.81 260.444 245.491 247.988 245.491 247.988C258.116 235.556 263.323 185.669 263.323 185.669L273.549 134.28L254.907 141.798C248.024 144.361 243.58 143.512 240.748 141.641L240.693 141.601C238.236 139.845 236.525 137.233 235.895 134.28L219.259 86.4771L240.709 75.6646L243.91 81.869L256.936 107.111L263.756 100.349C266.911 96.4135 270.447 92.7997 274.312 89.5597C283.216 82.2858 288.4 82.8992 288.4 82.8992L293.206 88.907L296.423 127.171Z" fill="#00B5AD"/>
<path opacity="0.7" d="M296.423 127.171L294.85 184.875L293.78 203.826C287.81 260.444 245.491 247.988 245.491 247.988C258.116 235.556 263.323 185.669 263.323 185.669L273.549 134.28L254.907 141.798C248.024 144.361 243.58 143.512 240.748 141.641L240.693 141.601C238.236 139.845 236.525 137.233 235.895 134.28L219.259 86.4771L240.709 75.6646L243.91 81.869L256.936 107.111L263.756 100.349C266.911 96.4135 270.447 92.7997 274.312 89.5597C283.216 82.2858 288.4 82.8992 288.4 82.8992L293.206 88.907L296.423 127.171Z" fill="white"/>
<path opacity="0.7" d="M263.953 105.027L265.526 116.744L259.508 111.735L252.901 121.171V109.132L243.879 81.8848L256.905 107.127L263.725 100.364C266.879 96.4293 270.415 92.8154 274.281 89.5754L263.953 105.027Z" fill="white"/>
<path d="M276.578 98.1153H284.994V134.115C284.994 134.92 284.674 135.692 284.105 136.261C283.535 136.831 282.763 137.15 281.958 137.15H279.598C278.793 137.15 278.021 136.831 277.451 136.261C276.882 135.692 276.562 134.92 276.562 134.115V98.1153H276.578Z" fill="#E6E7E8"/>
<path d="M276.578 120.991H284.994V134.123C284.994 134.521 284.916 134.916 284.763 135.284C284.61 135.653 284.387 135.987 284.105 136.269C283.823 136.551 283.488 136.775 283.12 136.927C282.751 137.08 282.357 137.158 281.958 137.158H279.598C279.199 137.158 278.804 137.08 278.436 136.927C278.068 136.775 277.733 136.551 277.451 136.269C277.169 135.987 276.946 135.653 276.793 135.284C276.64 134.916 276.562 134.521 276.562 134.123V120.991H276.578Z" fill="#00B5AD"/>
<path d="M286.685 94.9541H274.894V99.1218H286.685V94.9541Z" fill="#E6E7E8"/>
<path opacity="0.7" d="M274.257 130.112L273.573 134.28L254.931 141.798C248.048 144.361 243.604 143.512 240.772 141.641L240.717 141.601C240.717 141.601 254.05 137.669 270.835 123.814C271.304 124.99 271.892 126.115 272.59 127.171C272.946 128.252 273.513 129.251 274.257 130.112Z" fill="white"/>
<path d="M305.146 71.7564L306.594 78.6135C306.594 78.6135 312.013 78.2124 314.531 66.1024L305.146 71.7564Z" fill="#F7A48B"/>
<path d="M303.062 332.089C303.07 332.024 303.07 331.958 303.062 331.893C303.067 331.961 303.067 332.029 303.062 332.097V332.089Z" stroke="#ED1C24" stroke-width="0.25" stroke-miterlimit="10"/>
<path opacity="0.2" d="M351.115 360.407L357.738 445.436C357.738 445.436 318.259 472.173 285.844 445.436C285.844 445.436 336.351 465.803 346.167 417.733V349.123L334.982 354.721L341.361 339.781L328.878 337.421L346.183 327.616L352.295 243.286L357.801 242.106C357.801 242.106 348.999 327.592 351.115 360.407Z" fill="white"/>
<path d="M281.643 413.526C281.848 416.156 281.34 418.792 280.173 421.159C279.006 423.525 277.223 425.533 275.012 426.973L284.019 425.188L286.945 414.839C286.945 414.839 283.271 415.665 281.643 413.526Z" fill="#F9B499"/>
<path d="M275.012 426.973C266.689 432.289 257.445 436.001 247.757 437.919C247.757 437.919 241.189 439.861 247.757 444.21C247.757 444.21 263.347 458.86 280.982 440.954L279.865 439.79L284.019 425.156L275.012 426.973Z" fill="#00B5AD"/>
<path opacity="0.2" d="M298.107 185.04L299.68 237.105C299.68 237.105 295.062 235.328 293.387 225.781V208.639C293.387 208.639 294.237 196.332 294.402 193.391L294.882 184.875L298.107 185.04Z" fill="white"/>
<path d="M223.372 84.4168L224.025 77.3867C224.091 76.6586 223.996 75.925 223.747 75.2375C223.498 74.5501 223.102 73.9255 222.586 73.4077C218.574 69.3501 208.915 58.6634 212.777 53.2296C212.777 53.2296 215.137 46.0344 220.753 45.1615L232.056 44.6897C232.056 44.6897 234.88 47.1117 228.564 47.6071C228.564 47.6071 226.401 48.5743 227.235 49.5022C227.235 49.5022 232.214 50.21 233.346 53.4341C233.503 53.8845 233.498 54.3752 233.333 54.8226C233.168 55.27 232.853 55.6464 232.442 55.8875C231.168 56.6267 229.429 58.0028 230.869 59.3554C230.869 59.3554 238.845 64.0264 238.019 69.5073L236.446 77.7956L223.372 84.4168Z" fill="#F9B499"/>
<path d="M38.4053 486.288H46.2476L94.0409 273.325H69.9634L38.4053 486.288Z" fill="#D1D3D4"/>
<path d="M403.526 486.288H412.296L379.55 273.325H354.851L403.526 486.288Z" fill="#D1D3D4"/>
<path opacity="0.2" d="M64.5986 309.521C64.5986 309.521 75.7604 300.25 88.4953 298.04L94.0408 273.325H69.9632L64.5986 309.521Z" fill="black"/>
<path opacity="0.2" d="M361.089 300.604L354.851 273.325H379.55L385.395 311.322C385.395 311.322 374.272 298.166 361.089 300.604Z" fill="black"/>
<path d="M81.8724 63.8298C92.2203 63.8298 100.609 52.2503 100.609 37.9663C100.609 23.6823 92.2203 12.1028 81.8724 12.1028C71.5244 12.1028 63.1357 23.6823 63.1357 37.9663C63.1357 52.2503 71.5244 63.8298 81.8724 63.8298Z" fill="#F9B499"/>
<path d="M101.765 22.184L106.902 21.72C106.902 21.72 106.611 29.1905 100.334 33.3897L99.7515 30.0948C99.7515 30.0948 90.3124 29.6466 85.1917 24.5195C85.1917 24.5195 84.4995 27.5549 88.4639 29.1905C88.4639 29.1905 82.3207 31.9585 77.1842 26.1473C76.7385 25.6178 76.1445 25.2338 75.4786 25.0446C74.8128 24.8555 74.1056 24.8698 73.4479 25.0857C71.9848 25.5811 70.3015 26.7842 69.3812 29.5601C69.0539 30.6433 68.8974 31.7708 68.9171 32.9021C68.9171 35.6387 68.6104 42.543 65.582 43.0384L51.4941 40.9624C51.4941 40.9624 34.1891 11.686 59.6747 12.1028C59.6747 12.1028 62.4985 -6.06218 79.2687 2.116L90.7529 8.87873C90.7529 8.87873 98.9414 14.918 108.278 13.3453C108.278 13.3453 105.564 19.7463 101.765 22.184Z" fill="#2F2E41"/>
<path opacity="0.2" d="M106.878 21.72C106.878 21.72 106.587 29.1905 100.31 33.3897L99.7279 30.0948C99.7279 30.0948 90.2888 29.6466 85.1681 24.5195C85.1681 24.5195 84.4759 27.5548 88.4403 29.1905C88.4403 29.1905 82.297 31.9585 77.1606 26.1472C76.7166 25.6224 76.1267 25.2412 75.4656 25.0522C74.8046 24.8632 74.1023 24.8748 73.4479 25.0857C71.9848 25.5811 70.3015 26.7842 69.3812 29.5601C69.0539 30.6432 68.8973 31.7708 68.9171 32.9021C68.9171 35.6387 68.6103 42.5429 65.5819 43.0383L51.4941 40.9623C51.4941 40.9623 47.9151 28.6007 55.4978 23.1119C55.4978 23.1119 55.4978 22.412 52.4695 23.1119C52.4695 23.1119 52.4695 13.0857 65.5819 17.7567C65.5819 17.7567 64.0087 9.2247 73.1175 8.17883C73.1175 8.17883 68.0676 11.5681 69.6565 16.2312C69.6565 16.2312 75.9492 10.9783 83.1859 18.1027C83.1859 18.1027 91.217 23.0018 96.4636 19.7384C96.4636 19.7384 95.7714 23.9297 88.6448 22.6558C88.6684 22.6558 96.4871 35.0174 106.878 21.72Z" fill="black"/>
<path d="M57.7082 53.7565C62.0698 53.7565 65.6056 50.2217 65.6056 45.8614C65.6056 41.5011 62.0698 37.9663 57.7082 37.9663C53.3466 37.9663 49.8108 41.5011 49.8108 45.8614C49.8108 50.2217 53.3466 53.7565 57.7082 53.7565Z" fill="#F9B499"/>
<path d="M65.8574 134.005C59.8434 136.744 54.0568 139.958 48.5523 143.614C40.1594 141.892 36.2107 128.351 36.2107 128.351C36.2107 128.351 41.0089 123.043 43.4159 117.035C43.7285 115.762 44.3426 114.582 45.2063 113.596C46.0701 112.609 47.1582 111.844 48.3793 111.365C49.8056 110.873 51.3255 110.711 52.8235 110.894C53.0837 110.92 53.3236 111.046 53.4924 111.245C53.6612 111.445 53.7457 111.702 53.7281 111.963C53.6101 113.402 53.8933 115.997 57.6611 115.494C57.6611 115.494 62.4199 112.576 65.527 113.709C66.129 113.921 66.6583 114.3 67.053 114.802C67.053 114.802 68.9329 116.697 67.053 119.772C67.053 119.772 66.0225 122.17 66.8721 124.057C66.8799 124.065 71.3635 131.654 65.8574 134.005Z" fill="#F9B499"/>
<path d="M57.6217 115.494C48.7096 120.645 48.3635 111.366 48.3635 111.366C49.7887 110.868 51.3098 110.706 52.8078 110.894C53.0665 110.92 53.3051 111.045 53.4738 111.243C53.6424 111.44 53.7279 111.696 53.7124 111.955C53.5865 113.402 53.8775 115.989 57.6217 115.494Z" fill="#F7A48B"/>
<path d="M65.8574 134.005C67.0923 128.901 65.3697 126.141 65.3697 126.141C61.5704 124.081 64.7404 119.764 64.7404 119.764C65.3942 118.915 65.8114 117.909 65.9495 116.846C66.0877 115.784 65.9419 114.704 65.527 113.717C66.129 113.929 66.6583 114.308 67.053 114.81C67.053 114.81 68.9329 116.705 67.053 119.78C67.053 119.78 66.0225 122.178 66.8721 124.065C66.8799 124.065 71.3635 131.654 65.8574 134.005Z" fill="#F7A48B"/>
<path d="M36.1948 128.351C36.1948 128.351 41.111 142.6 50.3063 144C50.3063 144 31.3887 175.604 19.2988 183.019C19.2988 183.019 7.38979 191.504 2.04883 174.054" fill="#00B5AD"/>
<path opacity="0.7" d="M36.1948 128.351C36.1948 128.351 41.111 142.6 50.3063 144C50.3063 144 31.3887 175.604 19.2988 183.019C19.2988 183.019 7.38979 191.504 2.04883 174.054" fill="white"/>
<path d="M173.66 46.1131H173.534C172.979 45.9225 172.489 45.5808 172.119 45.1265C171.748 44.6722 171.512 44.1235 171.436 43.5421C171.361 42.9607 171.45 42.3699 171.693 41.8362C171.935 41.3026 172.323 40.8474 172.81 40.522L179.984 35.8038C180.402 35.5146 180.891 35.3449 181.398 35.313C181.906 35.2811 182.412 35.3883 182.863 35.623C183.799 36.1577 184.586 37.353 184.027 40.0187C184.027 40.0187 189.337 39.2324 189.203 45.2245C189.203 45.2245 194.544 49.0541 191.807 53.2926C191.807 53.2926 196.88 57.4682 191.287 62.0762L184.358 63.6726C183.62 63.8508 182.845 63.7791 182.153 63.4688C181.461 63.1585 180.892 62.6272 180.535 61.9583C179.795 60.5507 179.315 58.7657 180.613 57.476C180.613 57.476 175.65 55.6202 177.467 51.5468C177.428 51.5468 174.132 51.9951 173.66 46.1131Z" fill="#F9B499"/>
<path d="M191.806 53.2296C188.354 55.3145 184.55 56.7534 180.582 57.476C182.293 56.4135 184.109 55.5306 186.001 54.8417C187.877 54.1102 189.822 53.5701 191.806 53.2296Z" fill="#F7A48B"/>
<path d="M177.427 51.5468C179.187 50.1506 181.072 48.9212 183.059 47.8745C185.018 46.7798 187.074 45.8715 189.203 45.1616C185.645 47.9194 181.659 50.0764 177.404 51.5468H177.427Z" fill="#F7A48B"/>
<path d="M173.66 46.113C176.718 43.455 180.229 41.3693 184.027 39.9558C180.969 42.6139 177.457 44.6996 173.66 46.113Z" fill="#F7A48B"/>
<path d="M410.518 265.501H40.9145C38.46 265.501 36.4702 267.49 36.4702 269.944V273.364C36.4702 275.818 38.46 277.807 40.9145 277.807H410.518C412.973 277.807 414.963 275.818 414.963 273.364V269.944C414.963 267.49 412.973 265.501 410.518 265.501Z" fill="#D1D3D4"/>
<path d="M235.14 257.417H151.218V265.501H235.14V257.417Z" fill="#BCBEC0"/>
<path d="M223.514 198.841H161.499V205.391H223.514V198.841Z" fill="#D1D3D4"/>
<path d="M346.128 102.204C335.053 113.213 333.307 139.163 333.307 139.163L302.346 122.941L297.446 145.745L335.202 169.84C335.202 169.84 342.455 175.808 350.344 168.345" fill="#00B5AD"/>
<path opacity="0.7" d="M346.128 102.204C335.053 113.213 333.307 139.163 333.307 139.163L302.346 122.941L297.446 145.745L335.202 169.84C335.202 169.84 342.455 175.808 350.344 168.345" fill="white"/>
<path d="M288.408 82.8913H301.355C301.355 82.8913 294.614 91.5413 296.423 127.171C296.423 127.171 289.611 115.352 288.408 82.8913Z" fill="#00B5AD"/>
<path opacity="0.4" d="M288.408 82.8913H301.355C301.355 82.8913 294.614 91.5413 296.423 127.171C296.423 127.171 289.611 115.352 288.408 82.8913Z" fill="white"/>
<path d="M302 124.655L298.681 140.131L287 132.377C287 132.377 282.453 133.635 278.347 132.503C277.012 132.186 275.782 131.529 274.776 130.596C273.77 129.663 273.022 128.486 272.605 127.179C272.605 127.179 267.398 120.566 272.605 115.156C272.605 115.156 268.208 108.542 271.41 107.748L273.368 108.283L282.438 110.744L282.304 110.634C281.627 110.021 278.536 107.017 279.732 103.612C279.808 103.383 279.948 103.181 280.136 103.03C280.323 102.878 280.55 102.783 280.79 102.756C281.029 102.728 281.272 102.77 281.488 102.876C281.705 102.981 281.887 103.147 282.013 103.352C282.346 103.931 282.708 104.493 283.098 105.035C284.491 107.025 286.441 109.124 288.447 109.124C288.447 109.124 292.773 109.337 294.921 117.145C296.889 119.991 299.276 122.522 302 124.655Z" fill="#F9B499"/>
<path d="M287.401 112.144C285.644 112.07 283.929 111.588 282.39 110.736L282.257 110.626C281.58 110.013 278.489 107.009 279.684 103.604C279.761 103.376 279.901 103.173 280.089 103.022C280.276 102.87 280.503 102.775 280.742 102.748C280.982 102.72 281.224 102.762 281.441 102.868C281.658 102.974 281.84 103.139 281.966 103.345C282.299 103.924 282.661 104.485 283.051 105.027C282.131 109.942 287.401 112.144 287.401 112.144Z" fill="#F7A48B"/>
<path d="M302 124.655L299.467 122.516L294.205 137.158L298.681 140.131L302 124.655Z" fill="#F7A48B"/>
<path d="M278.308 132.495C276.973 132.178 275.743 131.521 274.737 130.588C273.731 129.655 272.983 128.478 272.566 127.171C272.566 127.171 267.359 120.558 272.566 115.148C272.566 115.148 268.169 108.535 271.37 107.74L273.329 108.275C273.329 108.275 271.842 110.941 274.312 115.549C274.312 115.549 268.145 121.635 276.782 127.171C276.782 127.171 275.508 131.198 278.308 132.495Z" fill="#F7A48B"/>
<path d="M319.198 51.3464C319.986 37.7757 312.33 26.2935 302.1 25.7002C291.869 25.1069 282.937 35.6271 282.149 49.1978C281.362 62.7685 289.017 74.2507 299.248 74.844C309.479 75.4373 318.411 64.9171 319.198 51.3464Z" fill="#F9B499"/>
<path d="M368.837 76.2544C368.834 76.2753 368.834 76.2964 368.837 76.3173C367.778 77.8303 366.524 79.1972 365.108 80.3828C364.833 80.6187 364.566 80.831 364.322 81.0355L363.716 81.4601C363.551 81.5702 363.401 81.6803 363.236 81.7747L363.165 81.8219C362.922 81.9713 362.654 82.1207 362.379 82.2622C361.148 82.9631 359.786 83.4042 358.378 83.5584C356.969 83.7126 355.544 83.5765 354.19 83.1587H354.135C351.595 82.3723 348.842 80.4693 345.971 76.8678C345.971 76.8678 335.171 82.2701 334.384 72.936C334.384 72.936 330.341 65.7014 338.27 56.0606C338.882 55.331 339.338 54.4833 339.608 53.5701C339.879 52.657 339.959 51.6979 339.843 50.7526C339.744 49.7787 339.4 48.8456 338.844 48.0397C338.556 47.6556 338.173 47.3535 337.732 47.1633C337.291 46.9732 336.808 46.9016 336.331 46.9556C335.854 47.0097 335.399 47.1875 335.012 47.4715C334.625 47.7554 334.319 48.1357 334.124 48.5744C333.331 50.3506 332.348 52.0355 331.19 53.5993C330.593 54.4214 329.91 55.1779 329.153 55.8561C329.128 55.8863 329.099 55.9128 329.067 55.9348C328.19 56.7284 327.152 57.3214 326.023 57.6726L325.645 57.7749L317.228 44.6898C312.808 43.7461 314.751 39.7278 314.869 39.484C312.595 41.8431 310.708 42.8811 309.182 43.2193C305.351 44.0764 303.738 40.3884 303.738 40.3884C298.736 30.3779 295.566 34.4592 295.566 34.4592C292.797 38.2809 291.35 35.6466 291.35 35.6466C288.99 32.8786 287.668 36.5745 287.668 36.5745C287.668 36.5745 286.347 45.3424 282.076 49.0462C280.148 50.729 277.624 51.4053 274.359 49.7382C274.359 49.7382 267.634 46.4512 271.055 30.6374C271.461 29.631 272.053 28.7104 272.802 27.9245C274.587 25.9822 277.97 23.9298 283.971 25.243C283.971 25.243 286.74 26.1394 289.43 20.9023C290.157 19.4664 291.061 18.1271 292.12 16.9154C296.163 12.3781 306.075 3.90107 316.709 14.5563C317.001 14.8575 317.352 15.0942 317.74 15.2513C318.129 15.4084 318.546 15.4822 318.965 15.4682C319.383 15.4541 319.795 15.3524 320.172 15.1696C320.549 14.9868 320.883 14.7269 321.154 14.4069C325.378 9.37416 335.619 0.252344 348.574 10.2313C350.639 12.4947 352.069 15.2638 352.719 18.2579C353.368 21.252 353.213 24.3645 352.271 27.2797C352.017 28.121 351.704 28.9434 351.335 29.741C351.335 29.741 347.119 39.1144 356.22 42.9834C356.22 42.9834 364.086 46.7264 363.299 53.0567C363.381 56.9374 361.973 60.7021 359.366 63.5782C358.443 64.5568 357.865 65.8107 357.722 67.1483C357.408 70.7499 358.312 76.9779 368.837 76.2544Z" fill="#2F2E41"/>
<path opacity="0.2" d="M368.837 76.2544C368.834 76.2753 368.834 76.2964 368.837 76.3173C367.754 77.8111 366.503 79.1752 365.108 80.3828C364.833 80.6187 364.566 80.831 364.322 81.0354L363.716 81.4601C363.551 81.5702 363.401 81.6803 363.236 81.7746L363.165 81.8218C362.922 81.9712 362.654 82.1206 362.379 82.2622C357.99 84.6606 354.647 83.3552 354.19 83.1586H354.135C347.261 80.1783 348.873 70.7262 348.873 70.7262C342.683 67.2898 354.537 54.5193 354.537 54.5193C357.683 46.2231 350.187 45.4289 350.187 45.4289C340.048 46.8758 342.423 36.0712 342.423 36.0712C344.193 20.2417 326.015 25.1407 326.015 25.1407C333.519 28.5693 333.881 39.8929 333.881 39.8929C334.392 46.7185 332.929 50.9806 331.104 53.6228C330.531 54.4644 329.845 55.2237 329.067 55.8797C329.042 55.9099 329.013 55.9364 328.98 55.9583C328.079 56.7172 327.048 57.3061 325.936 57.6962L325.558 57.7984C329.877 53.4655 328.461 46.7893 327.069 42.8575C326.781 42.0621 326.214 41.3985 325.473 40.9904C324.732 40.5824 323.868 40.4578 323.041 40.6399C315.372 42.2284 310.999 32.619 310.999 32.619C306.279 25.3688 301.363 26.7134 301.363 26.7134C293.041 27.3818 291.751 33.4368 291.751 33.4368C287.818 27.1459 284.9 33.1773 284.9 33.1773C281.21 40.1524 278.835 34.8838 278.835 34.8838C278.71 33.2334 278.055 31.6675 276.968 30.4192C275.881 29.1709 274.42 28.3069 272.802 27.9559C274.587 26.0136 277.97 23.9612 283.971 25.2744C283.971 25.2744 286.74 26.1708 289.43 20.9337C290.155 19.4868 291.059 18.1368 292.12 16.9153C296.164 12.378 306.075 3.90102 316.709 14.5563C317.001 14.8574 317.352 15.0942 317.74 15.2513C318.129 15.4083 318.546 15.4822 318.965 15.4681C319.383 15.454 319.795 15.3523 320.172 15.1695C320.549 14.9867 320.883 14.7269 321.154 14.4068C347.017 0.118608 352.271 27.2796 352.271 27.2796C352.017 28.1209 351.704 28.9434 351.335 29.7409C351.335 29.7409 347.119 39.1144 356.22 42.9833C356.22 42.9833 364.086 46.7264 363.299 53.0566C363.381 56.9373 361.974 60.702 359.366 63.5782C358.443 64.5567 357.865 65.8106 357.722 67.1483C357.408 70.7498 358.312 76.9778 368.837 76.2544Z" fill="black"/>
<path d="M309.182 43.2271C303.133 48.1812 299.389 41.0567 299.389 41.0567C296.754 34.467 294.882 36.9755 294.882 36.9755C293.804 38.6819 292.522 38.0292 292.522 38.0292C290.162 37.2428 289.493 38.9414 289.493 38.9414C288.636 46.2624 282.162 49.1641 282.162 49.1641C282.126 49.1162 282.091 49.0663 282.06 49.0147C286.331 45.3109 287.653 36.543 287.653 36.543C287.653 36.543 288.966 32.8471 291.334 35.6151C291.334 35.6151 292.781 38.2494 295.55 34.4277C295.55 34.4277 298.696 30.3464 303.723 40.3568C303.739 40.3883 305.351 44.0763 309.182 43.2271Z" fill="#F7A48B"/>
<path d="M321.468 59.3869C325.295 59.3869 328.398 55.7113 328.398 51.1772C328.398 46.6432 325.295 42.9676 321.468 42.9676C317.641 42.9676 314.538 46.6432 314.538 51.1772C314.538 55.7113 317.641 59.3869 321.468 59.3869Z" fill="#F9B499"/>
<path d="M387.408 265.493H295.22C295.217 263.636 295.581 261.797 296.293 260.081C297.004 258.366 298.048 256.808 299.365 255.498C299.779 255.081 300.221 254.693 300.687 254.334C303.157 252.401 306.202 251.35 309.339 251.346H373.226C376.981 251.346 380.583 252.837 383.238 255.492C385.893 258.146 387.385 261.747 387.385 265.501L387.408 265.493Z" fill="#00B5AD"/>
<path opacity="0.2" d="M381.941 254.334H300.687C303.157 252.402 306.202 251.35 309.339 251.346H373.226C376.385 251.334 379.455 252.387 381.941 254.334Z" fill="black"/>
<path d="M385.945 144.464L372.699 157.706L368.64 153.64L366.414 151.431L379.66 138.181C379.785 138.06 379.951 137.993 380.124 137.993C380.297 137.993 380.464 138.06 380.588 138.181L385.945 143.536C386.065 143.66 386.132 143.827 386.132 144C386.132 144.173 386.065 144.339 385.945 144.464Z" fill="#D1D3D4"/>
<path d="M385.945 144.464L372.699 157.706L368.64 153.64L382.579 140.131L385.984 143.536C386.1 143.665 386.16 143.834 386.152 144.008C386.145 144.181 386.071 144.344 385.945 144.464Z" fill="#BCBEC0"/>
<path d="M329.219 191.349L334.158 196.287L328.796 201.647C328.708 201.735 328.587 201.785 328.462 201.785C328.337 201.785 328.217 201.735 328.129 201.647L323.857 197.376C323.813 197.333 323.778 197.281 323.755 197.223C323.731 197.166 323.719 197.105 323.719 197.043C323.719 196.981 323.731 196.919 323.755 196.862C323.778 196.805 323.813 196.753 323.857 196.709L329.219 191.349Z" fill="#D1D3D4"/>
<path d="M304.438 228.715V231.365C304.437 232.413 304.83 233.424 305.54 234.196L321.39 251.346H360.137C360.137 251.346 395.919 221.983 362.56 173.834L376.781 160.12L364.707 147.475L324.08 188.366L335.383 200.405L351.256 184.867C351.256 184.867 360.192 193.517 360.845 210.557C361.317 220.234 358.381 229.77 352.546 237.506C347.827 243.64 341.054 248.61 333.763 241.894L319.234 228.715H304.438Z" fill="#00B5AD"/>
<path opacity="0.2" d="M315.467 228.715L335.918 248.083C335.918 248.083 345.066 255.073 354.214 246.195C354.214 246.195 384.348 217.147 356.904 179.756L376.781 160.096L335.092 190.489L325.944 186.471L324.064 188.366L335.383 200.405L351.256 184.867C351.256 184.867 362.316 194.995 360.963 215.441C360.561 222.048 358.587 228.465 355.205 234.156C350.722 241.634 342.942 250.245 333.763 241.925L319.234 228.746L315.467 228.715Z" fill="black"/>
<path d="M328.115 227.095H290.712V230.319H328.115V227.095Z" fill="#D1D3D4"/>
</svg>
